**ABCDEFGHIJKLMNOPQRSTUVWXYZabcdefghijklmnopqrstuvwxyz**************************
**PARASOLID !"#$%&'()*+,-./:;<=>?@[\]^_`{|}~0123456789**************************
**PART1;
MC=AMD64;
MC_MODEL=AMD64 Family 25 Model 33 Stepping 0, AuthenticAMD;
MC_ID=unknown;
OS=Windows_NT;
OS_RELEASE=unknown;
FRU=Parasolid Version 32.1, build 255,  1- 1-2021;
APPL=SOLIDWORKS 2021-2021085;
SITE=;
USER=unknown;
FORMAT=text;
GUISE=transmit;
KEY=makeProjectedPlanarWire;
FILE=makeProjectedPlanarWire.x_t;
DATE=Wed Oct 20 21:26:49 2021;
**PART2;
SCH=SCH_3201255_32001;
USFLD_SIZE=0;
**PART3;
**END_OF_HEADER*****************************************************************
T51 : TRANSMIT FILE created by modeller version 320125523 SCH_3201255_32001_1300
6229 0 12 34 CCCCCCI4 mesh1006 0 I8 polyline1008 0 CCCCCCCDI5 owner1040 0 CCCCCC
I13 boundary_mesh1006 0 I17 boundary_polyline1008 0 CCCA16 index_map_offset0 0 1
 dA9 index_map82 0 A17 node_id_index_map82 0 A20 schema_embedding_map82 0 A5 chi
ld12 0 A14 lowest_node_id0 0 1 dA16 mesh_offset_data206 0 Z1 125 0 0 0 0 0 0 0 0
 1e3 1e-8 0 2 0 1 0 3 1 3 4 5 6 0 0 7 8 9 0 0 0 0 0 0 0 13 255 3 82 0 1 0 10 0 0
 7 10 50 255 4 3 0 10 0 0 0 +0 0 0 0 1 0 0 0 1 30 255 5 53 0 8 11 0 0 +-.016 0 0
 0 0 -1 29 255 6 80 0 9 12 0 -.016 0 .006 19 8 CCCCCCCA5 owner12 0 Z7 81 0 1 0 0
 3 V0 16 255 8 51 0 ?13 0 14 5 0 0 1 18 255 9 78 0 15 0 16 6 ?1 17 255 15 0 0 0
 0 9 17 18 0 19 -18 16 75 0 20 9 21 12 ?1 17 20 0 22 19 23 16 24 14 0 13 -18 21
 72 0 23 16 25 26 ?1 29 12 77 0 16 26 6 -.016 0 -.006 29 26 74 0 21 27 12 .016 0
 -.006 29 27 71 0 25 28 26 .016 0 .006 18 25 69 0 17 21 29 27 ?1 29 28 68 0 29 3
0 27 .015 0 -.005 18 29 66 0 31 25 32 28 ?1 29 30 65 0 32 33 28 -.015 0 -.005 18
 32 63 0 34 29 35 30 ?1 29 33 62 0 35 36 30 -.015 0 .005 18 35 60 0 37 32 38 33
 ?1 29 36 59 0 38 0 33 .015 0 .005 18 38 57 0 39 35 0 36 ?1 17 39 0 40 37 41 38
 31 42 0 43 -15 255 40 7 0 39 10 22 17 37 0 40 34 39 35 43 44 0 45 -17 41 0 40 3
9 34 29 46 47 0 0 +17 31 0 0 0 0 29 39 42 0 41 +16 42 9 0 ?31 44 0 48 0 0 1 17 4
3 0 0 0 0 38 37 44 0 0 +16 44 15 0 ?43 49 42 50 0 0 1 16 49 21 0 ?34 47 44 51 0
 0 1 30 50 17 0 44 48 51 0 +0 0 .005 1 0 0 30 48 11 0 42 0 50 0 +.015 0 -2602085
21396521e-32 -173472347597681e-30 0 -1 30 51 23 0 49 50 52 0 +-.015 0 0 0 0 -1 3
0 52 29 0 47 51 53 0 +0 0 -.005 1 0 0 16 47 27 0 ?41 18 49 52 0 0 1 30 53 35 0 1
8 52 54 0 +0 0 .006 1 0 0 16 18 33 0 ?17 55 47 53 0 0 1 30 54 41 0 55 53 11 0 +.
016 0 0 0 0 -1 16 55 39 0 ?23 14 18 54 0 0 1 30 11 47 0 14 54 5 0 +0 0 -.006 1 0
 0 16 14 45 0 ?24 8 55 11 0 0 1 17 24 0 0 0 0 21 20 14 0 0 +17 23 0 22 20 17 21
 56 55 0 24 +15 22 8 0 17 10 0 17 17 0 22 23 19 25 15 18 0 56 +17 56 0 0 0 0 25
 23 55 0 0 -17 19 0 22 17 20 9 13 8 0 0 -17 13 0 0 0 0 16 19 8 0 0 +14 255 10 1
 0 ?0 0 40 3 4 +0 0 0 0 3 17 34 0 40 41 37 32 45 49 0 46 +17 45 0 0 0 0 35 34 49
 0 0 -17 46 0 0 0 0 32 41 47 0 0 -1 0 
